<svg xmlns="http://www.w3.org/2000/svg" viewBox="0 0 33.09 32.33" width="33" height="32"><path d="M23.76 28.93C23.98 28.80 24.02 28.53 23.89 28.31C23.76 28.09 23.53 28.05 23.31 28.18C18.71 30.83 13.09 30.53 8.84 27.43L9.69 27.34C9.91 27.30 10.08 27.07 10.08 26.85C10.04 26.59 9.82 26.41 9.60 26.41L7.69 26.63C7.47 26.68 7.30 26.90 7.30 27.12L7.52 29.02C7.56 29.29 7.78 29.42 8.01 29.42C8.23 29.37 8.40 29.15 8.40 28.93L8.31 28.09C10.79 29.90 13.71 30.83 16.68 30.83C19.11 30.83 21.54 30.21 23.76 28.93" fill="#e41b17"/><path d="M6.45 9.20C6.50 9.42 6.68 9.60 6.94 9.60C7.16 9.55 7.38 9.38 7.34 9.11L7.16 7.21C7.12 6.99 6.94 6.81 6.68 6.81L4.73 6.99C4.51 7.03 4.29 7.21 4.33 7.47C4.38 7.74 4.55 7.87 4.82 7.87L5.61 7.83C2.08 12.25 1.50 18.45 4.20 23.45C4.33 23.67 4.60 23.76 4.82 23.62C5.04 23.49 5.08 23.23 4.99 23.05C2.43 18.31 3.00 12.47 6.37 8.31L6.45 9.20" fill="#e41b17"/><path d="M26.63 6.77L26.46 4.86C26.41 4.60 26.19 4.42 25.97 4.46C25.75 4.51 25.53 4.68 25.57 4.95L25.66 5.75C21.37 2.21 15.39 1.50 10.35 4.02C10.13 4.15 10.04 4.42 10.17 4.64C10.31 4.86 10.53 4.91 10.75 4.82C15.48 2.43 21.10 3.09 25.17 6.45L24.24 6.54C24.02 6.59 23.80 6.77 23.84 7.03C23.89 7.25 24.07 7.43 24.29 7.43C24.33 7.43 24.37 7.43 26.23 7.25C26.50 7.21 26.67 6.99 26.63 6.77" fill="#e41b17"/><path d="M28.58 9.86C28.36 9.99 28.31 10.26 28.40 10.44C30.66 14.64 30.44 19.73 27.91 23.71L27.83 23.00C27.78 22.78 27.60 22.60 27.34 22.60C27.12 22.65 26.90 22.83 26.94 23.09L27.12 25.00C27.12 25.13 27.21 25.22 27.30 25.30C27.38 25.35 27.47 25.39 27.56 25.39C27.60 25.39 27.69 25.39 29.51 25.22C29.73 25.17 29.95 25.00 29.91 24.73C29.86 24.46 29.68 24.33 29.42 24.33L28.44 24.42C31.32 20.13 31.59 14.60 29.15 9.99C29.07 9.82 28.80 9.73 28.58 9.86" fill="#e41b17"/><path d="M22.56 18.27C22.43 18.80 22.21 19.29 21.99 19.73C21.90 19.91 21.90 20.08 22.03 20.21L23.62 22.30L22.30 23.62L20.22 22.03C20.08 21.94 19.86 21.90 19.73 21.99C19.29 22.25 18.80 22.43 18.27 22.60C18.09 22.65 17.96 22.78 17.96 22.96L17.61 25.57L15.75 25.57L15.39 22.96C15.35 22.78 15.26 22.65 15.08 22.60C14.55 22.47 14.07 22.25 13.62 21.99C13.49 21.90 13.27 21.90 13.14 22.03L11.06 23.62L9.73 22.30L11.32 20.22C11.41 20.08 11.46 19.86 11.37 19.73C11.10 19.29 10.92 18.80 10.79 18.27C10.75 18.09 10.61 17.96 10.44 17.96L7.83 17.61L7.83 15.75L10.44 15.39C10.61 15.35 10.75 15.26 10.79 15.08C10.92 14.60 11.15 14.11 11.37 13.62C11.46 13.45 11.46 13.27 11.32 13.14L9.73 11.06L11.06 9.73L13.14 11.32C13.27 11.41 13.49 11.46 13.62 11.37C14.07 11.10 14.55 10.92 15.08 10.75C15.26 10.71 15.39 10.57 15.39 10.39L15.75 7.78L17.61 7.78L17.96 10.39C18.00 10.57 18.09 10.70 18.27 10.75C18.80 10.88 19.29 11.10 19.73 11.37C19.86 11.46 20.08 11.46 20.22 11.32L22.30 9.73L23.62 11.06L21.99 13.14C21.90 13.27 21.85 13.49 21.94 13.62C22.21 14.07 22.38 14.55 22.56 15.08C22.60 15.26 22.74 15.39 22.91 15.39L25.53 15.75L25.53 17.61L22.91 17.96C22.78 17.96 22.60 18.09 22.56 18.27M26.06 18.44C26.28 18.40 26.46 18.23 26.46 18.00L26.46 15.35C26.46 15.13 26.28 14.95 26.06 14.91L23.36 14.55C23.23 14.15 23.09 13.80 22.91 13.44L24.60 11.28C24.73 11.10 24.73 10.84 24.55 10.70L22.69 8.84C22.52 8.67 22.30 8.67 22.12 8.80L19.95 10.48C19.60 10.31 19.24 10.13 18.84 10.04L18.45 7.30C18.40 7.08 18.22 6.90 18.00 6.90L15.35 6.90C15.13 6.90 14.95 7.08 14.91 7.30L14.55 10.00C14.15 10.13 13.80 10.26 13.45 10.44L11.28 8.76C11.10 8.62 10.84 8.62 10.70 8.80L8.84 10.66C8.67 10.84 8.67 11.06 8.80 11.23L10.48 13.40C10.31 13.76 10.13 14.11 10.04 14.51L7.30 14.91C7.08 14.95 6.90 15.13 6.90 15.35L6.90 18.00C6.90 18.23 7.08 18.40 7.30 18.44L10.00 18.80C10.13 19.20 10.26 19.55 10.44 19.91L8.76 22.07C8.62 22.25 8.62 22.52 8.80 22.65L10.66 24.51C10.84 24.69 11.06 24.69 11.23 24.55L13.40 22.87C13.76 23.05 14.11 23.22 14.51 23.31L14.86 26.01C14.91 26.23 15.08 26.41 15.31 26.41L17.96 26.41C18.18 26.41 18.36 26.23 18.40 26.01L18.76 23.31C19.15 23.18 19.51 23.05 19.86 22.87L22.03 24.55C22.21 24.69 22.47 24.69 22.60 24.51L24.46 22.65C24.64 22.47 24.64 22.25 24.51 22.07L22.87 19.91C23.05 19.55 23.23 19.20 23.31 18.80L26.06 18.44" fill="#e41b17"/><path d="M16.68 19.11C15.21 19.11 14.02 17.91 14.02 16.46C14.02 15.00 15.21 13.80 16.68 13.80C18.14 13.80 19.33 15.00 19.33 16.46C19.33 17.91 18.14 19.11 16.68 19.11M16.68 12.87C14.73 12.87 13.14 14.46 13.14 16.41C13.14 18.36 14.73 19.95 16.68 19.95C18.62 19.95 20.22 18.36 20.22 16.41C20.22 14.46 18.62 12.87 16.68 12.87" fill="#e41b17"/></svg>