<svg xmlns="http://www.w3.org/2000/svg" viewBox="0 0 78.94 77.85" width="79" height="78"><path d="M76.66 39.94C76.66 39.47 76.35 39.16 75.88 39.16C71.21 39.31 66.54 39.78 62.19 40.40L62.19 33.24C64.37 32.78 70.90 30.75 71.52 22.97C71.52 22.82 71.52 22.51 71.37 22.35C71.21 22.20 71.06 22.04 70.75 22.04C70.75 22.04 65.30 22.20 62.19 28.26L62.19 22.51C64.21 22.04 69.66 20.02 71.52 13.02C71.52 12.86 71.52 12.55 71.37 12.39C71.21 12.24 71.06 12.08 70.75 12.08C70.75 12.08 65.14 12.24 62.19 17.53L62.19 15.82C63.28 14.73 66.70 9.75 62.03 1.97C62.03 1.66 61.72 1.50 61.41 1.50C61.10 1.50 60.94 1.66 60.79 1.81C60.79 1.97 55.34 9.90 60.63 15.66L60.63 17.68C57.52 12.08 51.92 12.08 51.92 12.08C51.61 12.08 51.45 12.24 51.29 12.39C51.14 12.55 51.14 12.86 51.14 13.02C53.01 20.17 58.76 22.20 60.63 22.66L60.63 28.58C57.36 22.35 51.92 22.20 51.92 22.20C51.76 22.20 51.45 22.35 51.29 22.51C51.14 22.66 51.14 22.82 51.14 23.13C51.76 31.07 58.61 32.93 60.63 33.40L60.63 40.40C60.63 40.40 60.63 40.56 60.63 40.56C56.59 41.18 52.54 41.96 48.80 42.89C46.47 41.34 43.98 40.09 41.34 39.00L41.34 36.05C43.20 35.58 47.72 34.18 48.34 29.04C48.34 28.89 48.34 28.58 48.18 28.42C48.03 28.26 47.72 28.11 47.56 28.11C47.56 28.11 43.83 28.26 41.34 31.69L41.34 28.73C42.89 28.26 46.94 26.86 48.34 22.20C48.34 21.88 48.34 21.73 48.18 21.57C48.03 21.42 47.87 21.26 47.56 21.26C47.56 21.26 43.83 21.26 41.34 24.53L41.34 24.22C42.27 23.29 44.60 20.02 41.18 14.73C41.02 14.57 40.87 14.42 40.56 14.42C40.25 14.42 40.09 14.57 39.94 14.73C38.53 16.75 36.67 21.11 39.78 24.37L39.78 24.84C37.45 21.57 33.56 21.57 33.56 21.57C33.24 21.57 33.09 21.73 32.93 21.88C32.78 22.04 32.78 22.35 32.78 22.51C34.18 27.33 38.22 28.73 39.78 29.04L39.78 32.00C37.29 28.26 33.56 28.26 33.56 28.26C33.40 28.26 33.09 28.42 32.93 28.58C32.78 28.73 32.78 28.89 32.78 29.20C33.24 34.49 38.07 35.89 39.78 36.20L39.78 38.38C32.31 35.42 24.37 33.71 17.68 32.78L17.68 28.89C19.55 28.42 24.06 27.02 24.69 21.88C24.69 21.73 24.69 21.42 24.53 21.26C24.37 21.11 24.22 20.95 23.91 20.95C23.91 20.95 20.17 21.11 17.68 24.53L17.68 21.57C19.24 21.11 23.29 19.71 24.69 15.04C24.69 14.73 24.69 14.57 24.53 14.42C24.37 14.26 24.22 14.10 23.91 14.10C23.91 14.10 20.17 14.10 17.68 17.37L17.68 16.91C18.62 15.97 20.95 12.70 17.53 7.41C17.37 7.26 17.22 7.10 16.91 7.10C16.59 7.10 16.44 7.26 16.28 7.41C14.88 9.28 13.02 13.79 16.13 16.91L16.13 17.37C13.79 14.10 9.90 14.10 9.90 14.10C9.59 14.10 9.44 14.26 9.28 14.42C9.12 14.57 9.12 14.88 9.12 15.04C10.53 19.86 14.57 21.26 16.13 21.57L16.13 24.53C13.64 20.80 9.90 20.80 9.90 20.80C9.59 20.80 9.44 20.95 9.28 21.11C9.12 21.26 9.12 21.57 9.12 21.73C9.59 27.02 14.42 28.42 16.13 28.73L16.13 32.47C8.19 31.53 2.28 31.53 2.28 31.53C1.81 31.53 1.50 31.84 1.50 32.31C1.50 32.78 1.81 33.09 2.28 33.09C2.59 33.09 29.04 32.78 46.78 43.36C42.89 44.29 39.31 45.38 35.73 46.47L35.58 46.32C23.91 38.53 3.06 37.13 2.28 36.98C1.81 36.98 1.50 37.29 1.50 37.76C1.50 38.22 1.81 38.53 2.28 38.53C2.43 38.53 22.51 39.94 34.02 46.94C30.75 48.03 27.80 49.12 25.00 50.36C25.00 50.36 24.84 50.21 24.84 50.21C16.44 45.23 3.06 43.67 2.43 43.67C1.97 43.67 1.66 43.98 1.66 44.29C1.66 44.76 1.97 45.07 2.28 45.07C2.43 45.07 15.04 46.47 23.29 50.98C19.39 52.54 16.13 54.25 13.33 55.65C9.90 52.70 2.90 51.29 2.59 51.29C2.12 51.14 1.81 51.45 1.66 51.92C1.50 52.54 1.66 52.85 2.12 53.01C2.12 53.01 8.35 54.25 11.61 56.74C6.17 59.54 3.21 61.41 3.06 61.56C2.74 61.88 2.59 62.34 2.90 62.65C3.06 62.81 3.37 62.97 3.52 62.97C3.68 62.97 3.83 62.97 3.99 62.81C4.30 62.65 35.73 42.11 75.88 40.71C76.35 40.71 76.66 40.40 76.66 39.94M69.97 23.91C69.03 29.35 64.68 31.07 62.50 31.69C64.37 25.77 68.26 24.22 69.97 23.91M69.81 13.79C68.10 18.62 64.37 20.33 62.50 20.95C64.05 15.50 67.79 14.10 69.81 13.79M61.41 3.83C64.21 9.44 62.50 13.02 61.41 14.26C58.45 10.68 60.32 6.01 61.41 3.83M53.01 13.79C54.87 14.10 58.76 15.66 60.32 20.95C58.45 20.33 54.72 18.46 53.01 13.79M52.85 23.91C54.56 24.22 58.45 25.77 60.32 31.69C58.14 31.07 53.78 29.35 52.85 23.91M46.63 29.82C45.85 32.78 43.36 33.87 41.80 34.33C43.05 31.07 45.38 30.13 46.63 29.82M46.47 22.97C45.23 25.46 43.20 26.55 41.80 27.02C42.89 24.22 45.07 23.29 46.47 22.97M40.71 16.59C42.43 19.86 41.34 21.88 40.71 22.82C38.85 20.64 39.94 17.99 40.71 16.59M34.80 22.97C36.20 23.29 38.38 24.22 39.47 27.02C38.07 26.71 36.05 25.46 34.80 22.97M34.64 29.82C35.89 30.13 38.22 31.22 39.47 34.33C37.91 33.87 35.27 32.78 34.64 29.82M22.97 22.51C22.20 25.46 19.71 26.55 18.15 27.02C19.39 23.91 21.73 22.97 22.97 22.51M22.66 15.82C21.42 18.31 19.39 19.40 17.99 19.86C19.08 17.06 21.42 16.13 22.66 15.82M16.91 9.28C18.62 12.55 17.53 14.57 16.91 15.50C15.19 13.33 16.13 10.68 16.91 9.28M11.15 15.82C12.55 16.13 14.73 17.06 15.82 19.86C14.42 19.40 12.24 18.31 11.15 15.82M10.84 22.51C12.08 22.82 14.42 23.91 15.66 27.02C14.10 26.71 11.61 25.46 10.84 22.51" fill="#e41b17"/><path d="M76.66 44.60C76.66 44.14 76.19 43.83 75.88 43.83C41.65 45.69 10.99 69.19 10.68 69.35C10.37 69.66 10.21 70.12 10.53 70.43C10.68 70.59 10.84 70.75 11.15 70.75C11.30 70.75 11.46 70.75 11.61 70.59C11.93 70.28 42.27 47.09 75.88 45.38C76.35 45.38 76.66 45.07 76.66 44.60" fill="#e41b17"/><path d="M76.66 50.05C76.66 49.58 76.19 49.27 75.88 49.27C54.72 51.29 28.42 70.59 27.33 71.52C27.02 71.83 26.86 72.30 27.18 72.61C27.33 72.77 27.49 72.92 27.80 72.92C27.95 72.92 28.11 72.92 28.26 72.77C28.58 72.61 55.18 52.85 76.04 50.98C76.50 50.83 76.81 50.52 76.66 50.05" fill="#e41b17"/><path d="M77.28 56.43C77.13 55.96 76.81 55.81 76.35 55.81C61.88 59.08 44.45 74.17 43.67 74.95C43.36 75.26 43.36 75.73 43.67 76.04C43.83 76.19 43.98 76.35 44.29 76.35C44.45 76.35 44.60 76.35 44.76 76.19C44.91 76.04 62.65 60.63 76.66 57.52C77.13 57.21 77.44 56.90 77.28 56.43" fill="#e41b17"/></svg>