<svg xmlns="http://www.w3.org/2000/svg" viewBox="0 0 83.74 97.80" width="84" height="98"><path d="M62.84 78.29C62.38 77.49 62.66 76.47 63.46 76.01C64.25 75.55 65.27 75.83 65.73 76.63L68.77 81.89L78.62 82.72L68.64 65.44C68.58 65.51 68.51 65.58 68.44 65.65C66.80 67.29 64.76 68.32 62.62 68.73C60.42 69.15 58.12 68.92 56.04 68.03C54.98 67.58 54.24 67.52 53.73 67.78C53.15 68.08 52.66 68.81 52.19 69.87C51.71 70.99 51.04 72.02 50.23 72.91L61.58 92.57L65.78 83.62C65.80 83.58 65.83 83.54 65.85 83.50L62.84 78.29M38.54 42.34C38.25 42.20 38.00 42.00 37.79 41.75L34.09 37.19L34.09 37.19C33.85 36.90 33.50 36.73 33.14 36.69C32.78 36.65 32.40 36.75 32.10 36.99L32.10 36.99C31.81 37.23 31.63 37.58 31.60 37.94C31.56 38.31 31.65 38.68 31.90 38.98L38.34 46.91C38.58 47.20 38.92 47.37 39.29 47.41C39.65 47.45 40.03 47.36 40.33 47.12L40.34 47.10L40.37 47.08L40.39 47.07C40.44 47.03 40.48 46.99 40.51 46.96L40.51 46.96C40.55 46.92 40.59 46.88 40.62 46.84L51.84 33.03L51.84 33.03C52.08 32.74 52.18 32.36 52.14 31.99C52.10 31.63 51.93 31.28 51.64 31.04L51.63 31.04C51.34 30.80 50.96 30.71 50.60 30.74C50.23 30.78 49.89 30.95 49.64 31.25L41.12 41.74L41.12 41.74C40.91 42.00 40.66 42.20 40.38 42.33L40.38 42.34C40.09 42.48 39.78 42.54 39.45 42.54C39.13 42.54 38.83 42.48 38.54 42.34M39.45 38.50L47.05 29.14C47.88 28.13 49.05 27.55 50.26 27.42C51.47 27.30 52.73 27.63 53.74 28.45L53.74 28.45C54.76 29.28 55.34 30.44 55.46 31.65C55.59 32.86 55.26 34.13 54.43 35.14L54.43 35.14L43.21 48.95C43.09 49.10 42.97 49.24 42.83 49.36L42.83 49.37C42.69 49.50 42.56 49.62 42.42 49.72L42.42 49.72L42.39 49.74L42.39 49.74C41.38 50.54 40.13 50.86 38.93 50.74C37.73 50.61 36.57 50.02 35.75 49.01L29.31 41.09C28.48 40.07 28.15 38.81 28.27 37.60C28.40 36.39 28.98 35.22 30.00 34.40L30.00 34.39L30.09 34.32L30.12 34.30L30.12 34.30L30.12 34.30C31.11 33.55 32.32 33.25 33.48 33.37C34.69 33.49 35.86 34.08 36.68 35.09L36.69 35.09L39.45 38.50M15.10 65.44L5.12 82.72L14.97 81.89L18.01 76.63C18.47 75.83 19.49 75.55 20.28 76.01C21.08 76.47 21.36 77.49 20.90 78.29L17.89 83.50C17.91 83.54 17.94 83.58 17.96 83.62L22.16 92.57L33.51 72.91C32.70 72.02 32.03 70.99 31.55 69.87C31.08 68.81 30.59 68.08 30.01 67.78C29.50 67.52 28.76 67.58 27.70 68.03C25.62 68.92 23.32 69.15 21.12 68.73C18.98 68.32 16.94 67.29 15.30 65.65C15.23 65.58 15.16 65.51 15.10 65.44M36.62 71.31C35.77 70.55 35.07 69.60 34.61 68.54C33.85 66.79 32.88 65.51 31.53 64.81C30.11 64.09 28.45 64.08 26.39 64.95C24.93 65.58 23.30 65.75 21.75 65.45C20.25 65.16 18.82 64.44 17.67 63.28C16.54 62.15 15.82 60.77 15.52 59.32C15.21 57.81 15.34 56.22 15.91 54.77C16.60 53.00 16.83 51.41 16.36 49.97C15.87 48.45 14.70 47.26 12.63 46.43C12.60 46.42 12.57 46.41 12.55 46.40C11.09 45.81 9.86 44.79 8.99 43.51C8.14 42.26 7.64 40.73 7.64 39.08C7.64 37.43 8.14 35.90 8.99 34.64C9.87 33.34 11.14 32.32 12.62 31.73L12.63 31.72L12.63 31.73C14.70 30.89 15.87 29.71 16.36 28.19C16.83 26.75 16.60 25.16 15.91 23.39C15.34 21.94 15.21 20.35 15.52 18.84C15.82 17.39 16.54 16.00 17.67 14.87C18.82 13.72 20.25 13.00 21.75 12.71C23.30 12.41 24.93 12.58 26.39 13.20C28.45 14.08 30.11 14.07 31.53 13.34C32.88 12.65 33.85 11.36 34.61 9.62C35.23 8.19 36.26 6.98 37.54 6.14C38.78 5.32 40.27 4.85 41.87 4.85C43.47 4.85 44.96 5.32 46.19 6.14C47.48 6.98 48.51 8.19 49.13 9.62C49.89 11.36 50.86 12.65 52.21 13.34C53.63 14.07 55.29 14.08 57.35 13.20C58.81 12.58 60.44 12.41 61.99 12.71C63.49 13.00 64.92 13.72 66.07 14.87C67.20 16.00 67.92 17.39 68.22 18.84C68.53 20.35 68.40 21.94 67.83 23.39C67.14 25.16 66.91 26.75 67.38 28.19C67.87 29.71 69.04 30.89 71.11 31.73C71.14 31.74 71.17 31.75 71.19 31.76C72.64 32.35 73.88 33.36 74.75 34.64C75.60 35.90 76.10 37.43 76.10 39.08C76.10 40.73 75.60 42.26 74.75 43.51C73.86 44.82 72.60 45.84 71.12 46.43L71.11 46.43L71.11 46.43C69.04 47.26 67.87 48.45 67.38 49.97C66.91 51.41 67.14 53.00 67.83 54.77C68.40 56.22 68.53 57.81 68.22 59.32C67.92 60.77 67.20 62.15 66.07 63.28C64.92 64.44 63.49 65.16 61.99 65.45C60.44 65.75 58.81 65.58 57.35 64.95C55.29 64.08 53.63 64.09 52.21 64.81C50.86 65.50 49.89 66.79 49.13 68.54C48.67 69.60 47.97 70.55 47.12 71.31C47.06 71.35 47.02 71.39 46.97 71.44C46.72 71.65 46.46 71.84 46.19 72.02C44.96 72.83 43.47 73.31 41.87 73.31C40.27 73.31 38.78 72.83 37.54 72.02C37.27 71.84 37.01 71.65 36.77 71.44C36.72 71.39 36.67 71.35 36.62 71.31M36.13 75.06L24.75 94.77C24.46 95.26 24.07 95.65 23.59 95.91C23.12 96.17 22.58 96.30 22.01 96.28C21.44 96.25 20.91 96.08 20.46 95.78C20.01 95.48 19.65 95.06 19.40 94.54L15.03 85.25L4.78 86.11C4.22 86.16 3.68 86.05 3.19 85.81C2.70 85.56 2.28 85.19 1.98 84.72C1.68 84.24 1.52 83.71 1.51 83.16C1.50 82.67 1.61 82.17 1.85 81.72C1.87 81.67 1.89 81.63 1.92 81.58L13.02 62.36C12.67 61.59 12.42 60.80 12.25 59.98C11.81 57.85 11.99 55.60 12.79 53.55C13.21 52.48 13.38 51.61 13.18 50.99C13.01 50.44 12.45 49.96 11.38 49.53C11.36 49.52 11.33 49.51 11.30 49.49C9.23 48.65 7.47 47.21 6.23 45.39C5.01 43.58 4.29 41.41 4.29 39.08C4.29 36.75 5.01 34.58 6.23 32.77C7.49 30.92 9.28 29.47 11.39 28.63L11.38 28.62C12.45 28.20 13.01 27.72 13.18 27.17C13.38 26.55 13.21 25.68 12.79 24.60C11.99 22.55 11.81 20.31 12.25 18.17C12.68 16.09 13.70 14.11 15.30 12.51C16.94 10.86 18.98 9.83 21.12 9.43C23.32 9.00 25.62 9.24 27.70 10.13C28.76 10.58 29.50 10.64 30.01 10.37C30.59 10.08 31.08 9.34 31.55 8.29C32.43 6.27 33.89 4.55 35.71 3.35C37.49 2.18 39.61 1.50 41.87 1.50C44.13 1.50 46.25 2.18 48.03 3.35C49.85 4.55 51.31 6.27 52.19 8.29C52.66 9.34 53.15 10.08 53.73 10.37C54.24 10.64 54.98 10.58 56.04 10.13C58.12 9.24 60.42 9.00 62.62 9.43C64.76 9.84 66.80 10.86 68.44 12.51C70.04 14.11 71.06 16.09 71.49 18.17C71.93 20.31 71.75 22.55 70.95 24.60C70.52 25.68 70.35 26.55 70.56 27.17C70.73 27.72 71.29 28.20 72.35 28.62C72.38 28.64 72.41 28.65 72.44 28.66C74.51 29.51 76.27 30.95 77.51 32.77C78.73 34.58 79.45 36.75 79.45 39.08C79.45 41.41 78.73 43.58 77.51 45.39C76.25 47.23 74.46 48.69 72.35 49.53L72.35 49.53C71.29 49.96 70.73 50.44 70.56 50.99C70.35 51.61 70.52 52.48 70.95 53.55C71.75 55.60 71.93 57.85 71.49 59.98C71.32 60.80 71.06 61.59 70.72 62.36L81.82 81.58C81.85 81.63 81.87 81.67 81.89 81.72C82.13 82.17 82.24 82.67 82.23 83.16C82.22 83.71 82.06 84.24 81.76 84.72C81.46 85.19 81.04 85.56 80.55 85.81C80.06 86.05 79.52 86.16 78.96 86.11L68.71 85.25L64.34 94.54C64.09 95.06 63.73 95.48 63.28 95.78C62.83 96.08 62.30 96.25 61.73 96.28C61.16 96.30 60.62 96.17 60.15 95.91C59.68 95.65 59.28 95.27 58.99 94.77L58.99 94.77L47.61 75.06C45.92 76.07 43.96 76.66 41.87 76.66C39.78 76.66 37.82 76.07 36.13 75.06M41.87 16.76C48.03 16.76 53.61 19.26 57.65 23.30C61.69 27.34 64.18 32.92 64.18 39.08C64.18 45.24 61.69 50.82 57.65 54.86C53.61 58.90 48.03 61.39 41.87 61.39C35.71 61.39 30.13 58.90 26.09 54.86C22.05 50.82 19.55 45.24 19.55 39.08C19.55 32.92 22.05 27.34 26.09 23.30C30.13 19.26 35.71 16.76 41.87 16.76M55.28 25.67C58.71 29.10 60.84 33.84 60.84 39.08C60.84 44.32 58.71 49.06 55.28 52.49C51.85 55.92 47.11 58.04 41.87 58.04C36.63 58.04 31.89 55.92 28.46 52.49C25.03 49.06 22.90 44.32 22.90 39.08C22.90 33.84 25.03 29.10 28.46 25.67C31.89 22.23 36.63 20.11 41.87 20.11C47.11 20.11 51.85 22.23 55.28 25.67" fill="#ffffff" fill-rule="evenodd"/></svg>